<svg version="1.2" baseProfile="tiny-ps" xmlns="http://www.w3.org/2000/svg" viewBox="0 0 512 512" width="512" height="512"><title>IconPhotovsem-svg</title><style>tspan { white-space:pre }.s0 { fill: #80d8ff;stroke: #ff0000 } .s1 { fill: #425356 } .s2 { fill: #ffffff } </style><g ><path class="s0" d="m0 0h512v512h-512v-512z" /><path fill-rule="evenodd" class="s1" d="m478.04 167.42v177.16c0 73.93-59.98 133.92-133.92 133.92h-176.7c-73.93 0-133.92-59.98-133.92-133.92v-177.16c0-73.93 59.98-133.92 133.92-133.92h177.16c73.93 0 133.92 59.98 133.92 133.92h-0.46zm-41.85 0c0-50.68-41.38-92.07-92.07-92.07h-176.7c-51.15 0-92.07 40.92-92.07 92.07v176.7c0 50.68 41.38 92.07 92.07 92.07h176.7c50.68 0 92.07-41.38 92.07-92.07l0-176.7zm-179.49-18.6c60.45 0 109.74 49.29 109.74 109.74c0 60.45-49.29 109.74-109.74 109.74c-60.45 0-109.74-49.29-109.74-109.74c0-60.45 49.29-109.74 109.74-109.74zm142.29-7.44c0 14.41-11.62 26.04-26.04 26.04c-14.41 0-26.04-11.62-26.04-26.04c0-14.41 11.62-26.04 26.04-26.04c14.41 0 26.04 11.62 26.04 26.04zm-72.07 117.64c0-38.59-31.15-70.21-70.21-70.21c-38.59 0-70.21 31.15-70.21 70.21c0 38.59 31.15 70.21 70.21 70.21c38.59 0 70.21-31.62 70.21-70.21z" /></g><g ></g><g ><path class="s2" d="m-0.02 354.2c0.03 19.38 0.31 35.51 1.74 50.09c0.44 4.45 1.01 8.75 1.68 12.96c1.36 8.55 3.13 15.32 5.31 22.31c0.49 1.57 1.17 3 1.77 4.45c2.48 5.95 5.22 11.31 8.38 16.12c3.74 5.69 8.3 11.72 13.35 16.9c5.64 5.78 11.08 10.3 17.12 14.39c3.88 2.63 7.58 4.9 11.83 6.96c1.67 0.81 3.39 1.63 5.23 2.44c3.01 1.32 6.32 2.62 10.19 3.72c8.17 2.31 18.92 4.75 33.34 5.89c13.02 1.03 29.04 1.61 49.6 1.59h-159.54v-157.81z" /><path class="s2" d="m512 512h-158.91c23.04-0.28 40.51-0.56 54.13-1.99c8.25-0.87 15.06-2.17 20.85-3.54c8.37-1.98 14.61-4.23 19.95-6.73c5.98-2.79 10.9-5.61 16.09-9.32c3.97-2.84 7.53-5.55 10.96-8.75c7.12-6.65 13.25-14.15 18.45-22.23c3.61-5.62 6.74-12.02 9.31-19.28c4.23-11.9 6.99-26.1 8.07-42.91c0.91-14.31 1.08-26.3 1.09-43.07v157.81z" /><path class="s2" d="m511.98 159.13c0.09-19.57-0.15-36.78-1.74-51.97c-0.71-6.75-1.93-13.16-2.98-19.09c-1.81-10.23-5.06-19.22-8.65-26.35c-1.06-2.11-1.95-3.78-2.89-5.41c-0.75-1.31-1.53-2.59-2.45-4.07c-0.98-1.57-1.94-3.1-3-4.6c-2.84-4.02-6.08-7.96-9.45-11.6c-5.03-5.42-10.63-10.49-16.94-14.69c-9.02-6-16.65-10.65-30.84-14.54c-6.45-1.77-14.34-3.43-24.33-4.61c-13.67-1.61-31.39-2.15-55.62-2.19h158.91l-0.02 159.13z" /><path class="s2" d="m0 0h159.54c-34.19-0.15-55.38 1.5-70.5 4.44c-6.67 1.3-12.42 2.7-17.35 4.59c-9.45 3.63-15.79 7.13-23.07 11.99c-12.12 8.08-21.98 18.7-29.68 30.67c-6.62 10.3-11.57 21.46-14.55 37.54c-3.42 18.48-4.38 42.88-4.4 70.01v-159.24z" /></g></svg>